<mxfile host="Electron" agent="Mozilla/5.0 (Windows NT 10.0; Win64; x64) AppleWebKit/537.36 (KHTML, like Gecko) draw.io/24.7.8 Chrome/128.0.6613.36 Electron/32.0.1 Safari/537.36" version="24.7.8">
  <diagram name="Page-1" id="GZrhVdwr7YQNyiAMjVQ2">
    <mxGraphModel dx="1444" dy="929" grid="1" gridSize="10" guides="1" tooltips="1" connect="1" arrows="1" fold="1" page="1" pageScale="1" pageWidth="850" pageHeight="1100" math="0" shadow="0">
      <root>
        <mxCell id="0" />
        <mxCell id="1" parent="0" />
        <mxCell id="nSw2PGSbgldnfBg0Nu-d-1" value="User" style="shape=umlLifeline;perimeter=lifelinePerimeter;whiteSpace=wrap;container=1;dropTarget=0;collapsible=0;recursiveResize=0;outlineConnect=0;portConstraint=eastwest;newEdgeStyle={&quot;edgeStyle&quot;:&quot;elbowEdgeStyle&quot;,&quot;elbow&quot;:&quot;vertical&quot;,&quot;curved&quot;:0,&quot;rounded&quot;:0};participant=umlActor;verticalAlign=bottom;labelPosition=center;verticalLabelPosition=top;align=center;size=65;" vertex="1" parent="1">
          <mxGeometry x="20" y="20" width="35" height="636" as="geometry" />
        </mxCell>
        <mxCell id="nSw2PGSbgldnfBg0Nu-d-2" value="Main" style="shape=umlLifeline;perimeter=lifelinePerimeter;whiteSpace=wrap;container=1;dropTarget=0;collapsible=0;recursiveResize=0;outlineConnect=0;portConstraint=eastwest;newEdgeStyle={&quot;edgeStyle&quot;:&quot;elbowEdgeStyle&quot;,&quot;elbow&quot;:&quot;vertical&quot;,&quot;curved&quot;:0,&quot;rounded&quot;:0};size=65;" vertex="1" parent="1">
          <mxGeometry x="220" y="20" width="150" height="636" as="geometry" />
        </mxCell>
        <mxCell id="nSw2PGSbgldnfBg0Nu-d-3" value="Admin" style="shape=umlLifeline;perimeter=lifelinePerimeter;whiteSpace=wrap;container=1;dropTarget=0;collapsible=0;recursiveResize=0;outlineConnect=0;portConstraint=eastwest;newEdgeStyle={&quot;edgeStyle&quot;:&quot;elbowEdgeStyle&quot;,&quot;elbow&quot;:&quot;vertical&quot;,&quot;curved&quot;:0,&quot;rounded&quot;:0};size=65;" vertex="1" parent="1">
          <mxGeometry x="420" y="20" width="150" height="636" as="geometry" />
        </mxCell>
        <mxCell id="nSw2PGSbgldnfBg0Nu-d-4" value="Nilai" style="shape=umlLifeline;perimeter=lifelinePerimeter;whiteSpace=wrap;container=1;dropTarget=0;collapsible=0;recursiveResize=0;outlineConnect=0;portConstraint=eastwest;newEdgeStyle={&quot;edgeStyle&quot;:&quot;elbowEdgeStyle&quot;,&quot;elbow&quot;:&quot;vertical&quot;,&quot;curved&quot;:0,&quot;rounded&quot;:0};size=65;" vertex="1" parent="1">
          <mxGeometry x="620" y="20" width="150" height="636" as="geometry" />
        </mxCell>
        <mxCell id="nSw2PGSbgldnfBg0Nu-d-5" value="loop" style="shape=umlFrame;dashed=1;pointerEvents=0;dropTarget=0;strokeColor=#B3B3B3;height=20;width=40" vertex="1" parent="1">
          <mxGeometry x="260" y="251" width="446" height="150" as="geometry" />
        </mxCell>
        <mxCell id="nSw2PGSbgldnfBg0Nu-d-6" value="[sampai nilai ditambah semua]" style="text;strokeColor=none;fillColor=none;align=center;verticalAlign=middle;whiteSpace=wrap;" vertex="1" parent="nSw2PGSbgldnfBg0Nu-d-5">
          <mxGeometry x="42.274881516587676" width="403.72511848341236" height="20" as="geometry" />
        </mxCell>
        <mxCell id="nSw2PGSbgldnfBg0Nu-d-7" value="alt" style="shape=umlFrame;dashed=1;pointerEvents=0;dropTarget=0;strokeColor=#B3B3B3;height=20;width=30" vertex="1" parent="1">
          <mxGeometry x="260" y="411" width="446" height="150" as="geometry" />
        </mxCell>
        <mxCell id="nSw2PGSbgldnfBg0Nu-d-8" value="[tampilkan data]" style="text;strokeColor=none;fillColor=none;align=center;verticalAlign=middle;whiteSpace=wrap;" vertex="1" parent="nSw2PGSbgldnfBg0Nu-d-7">
          <mxGeometry x="31.706161137440755" width="414.2938388625592" height="20" as="geometry" />
        </mxCell>
        <mxCell id="nSw2PGSbgldnfBg0Nu-d-9" value="tambahNilai()" style="verticalAlign=bottom;edgeStyle=elbowEdgeStyle;elbow=vertical;curved=0;rounded=0;endArrow=block;" edge="1" parent="1" source="nSw2PGSbgldnfBg0Nu-d-1" target="nSw2PGSbgldnfBg0Nu-d-2">
          <mxGeometry relative="1" as="geometry">
            <Array as="points">
              <mxPoint x="204" y="127" />
            </Array>
          </mxGeometry>
        </mxCell>
        <mxCell id="nSw2PGSbgldnfBg0Nu-d-10" value="tampilkanMenu()" style="verticalAlign=bottom;edgeStyle=elbowEdgeStyle;elbow=vertical;curved=0;rounded=0;endArrow=block;" edge="1" parent="1" source="nSw2PGSbgldnfBg0Nu-d-2" target="nSw2PGSbgldnfBg0Nu-d-3">
          <mxGeometry relative="1" as="geometry">
            <Array as="points">
              <mxPoint x="404" y="179" />
            </Array>
          </mxGeometry>
        </mxCell>
        <mxCell id="nSw2PGSbgldnfBg0Nu-d-11" value="tambah nilai()" style="verticalAlign=bottom;edgeStyle=elbowEdgeStyle;elbow=horizontal;curved=0;rounded=0;dashed=1;dashPattern=2 3;endArrow=block;" edge="1" parent="1" source="nSw2PGSbgldnfBg0Nu-d-3" target="nSw2PGSbgldnfBg0Nu-d-4">
          <mxGeometry relative="1" as="geometry">
            <Array as="points">
              <mxPoint x="604" y="231" />
            </Array>
          </mxGeometry>
        </mxCell>
        <mxCell id="nSw2PGSbgldnfBg0Nu-d-12" value="pilih data" style="verticalAlign=bottom;edgeStyle=elbowEdgeStyle;elbow=vertical;curved=0;rounded=0;endArrow=block;" edge="1" parent="1" source="nSw2PGSbgldnfBg0Nu-d-2" target="nSw2PGSbgldnfBg0Nu-d-4">
          <mxGeometry relative="1" as="geometry">
            <Array as="points">
              <mxPoint x="504" y="329" />
            </Array>
          </mxGeometry>
        </mxCell>
        <mxCell id="nSw2PGSbgldnfBg0Nu-d-13" value="tampilkan()" style="verticalAlign=bottom;edgeStyle=elbowEdgeStyle;elbow=vertical;curved=0;rounded=0;dashed=1;dashPattern=2 3;endArrow=block;" edge="1" parent="1" source="nSw2PGSbgldnfBg0Nu-d-4" target="nSw2PGSbgldnfBg0Nu-d-2">
          <mxGeometry relative="1" as="geometry">
            <Array as="points">
              <mxPoint x="507" y="381" />
            </Array>
          </mxGeometry>
        </mxCell>
        <mxCell id="nSw2PGSbgldnfBg0Nu-d-14" value="tampilkan" style="verticalAlign=bottom;edgeStyle=elbowEdgeStyle;elbow=vertical;curved=0;rounded=0;endArrow=block;" edge="1" parent="1" source="nSw2PGSbgldnfBg0Nu-d-2" target="nSw2PGSbgldnfBg0Nu-d-4">
          <mxGeometry relative="1" as="geometry">
            <Array as="points">
              <mxPoint x="504" y="489" />
            </Array>
          </mxGeometry>
        </mxCell>
        <mxCell id="nSw2PGSbgldnfBg0Nu-d-15" value="data" style="verticalAlign=bottom;edgeStyle=elbowEdgeStyle;elbow=vertical;curved=0;rounded=0;dashed=1;dashPattern=2 3;endArrow=block;" edge="1" parent="1" source="nSw2PGSbgldnfBg0Nu-d-4" target="nSw2PGSbgldnfBg0Nu-d-2">
          <mxGeometry relative="1" as="geometry">
            <Array as="points">
              <mxPoint x="507" y="541" />
            </Array>
          </mxGeometry>
        </mxCell>
        <mxCell id="nSw2PGSbgldnfBg0Nu-d-16" value="" style="rounded=0;whiteSpace=wrap;html=1;" vertex="1" parent="1">
          <mxGeometry x="284" y="300" width="10" height="80" as="geometry" />
        </mxCell>
        <mxCell id="nSw2PGSbgldnfBg0Nu-d-18" value="" style="rounded=0;whiteSpace=wrap;html=1;" vertex="1" parent="1">
          <mxGeometry x="294" y="130" width="10" height="120" as="geometry" />
        </mxCell>
      </root>
    </mxGraphModel>
  </diagram>
</mxfile>
